<svg xmlns="http://www.w3.org/2000/svg" xmlns:xlink="http://www.w3.org/1999/xlink" id="Layer_1" width="20" height="20" x="0" y="0" enable-background="new 0 0 20 20" version="1.1" viewBox="0 0 20 20" xml:space="preserve"><path fill="#878B8F" d="M19,13.5h-3.5v-7H19c0.6,0,1-0.4,1-1s-0.4-1-1-1h-3.5V1c0-0.6-0.4-1-1-1s-1,0.4-1,1v3.5h-7V1	c0-0.6-0.4-1-1-1s-1,0.4-1,1v3.5H1c-0.6,0-1,0.4-1,1s0.4,1,1,1h3.5v7H1c-0.6,0-1,0.4-1,1s0.4,1,1,1h3.5V19c0,0.6,0.4,1,1,1	s1-0.4,1-1v-3.5h7V19c0,0.6,0.4,1,1,1s1-0.4,1-1v-3.5H19c0.6,0,1-0.4,1-1S19.6,13.5,19,13.5z M6.5,13.5v-7h7v7H6.5z"/></svg>