<svg xmlns="http://www.w3.org/2000/svg" xmlns:xlink="http://www.w3.org/1999/xlink" id="Layer_1" width="40.5" height="40.5" x="0" y="0" enable-background="new 0 0 40.5 40.5" version="1.1" viewBox="0 0 40.5 40.5" xml:space="preserve"><g><linearGradient id="SVGID_1_" x1="6.875" x2="29.747" y1="20.25" y2="20.25" gradientUnits="userSpaceOnUse"><stop offset="0" style="stop-color:#61c192"/><stop offset="1" style="stop-color:#61c192;stop-opacity:0"/></linearGradient><path fill="url(#SVGID_1_)" d="M20.2,33.6c-7.4,0-13.4-6-13.4-13.4s6-13.4,13.4-13.4c3.4,0,6.6,1.3,9.1,3.6c0.4,0.4,0.4,1,0.1,1.4 c-0.4,0.4-1,0.4-1.4,0.1c-2.1-2-4.9-3-7.7-3C14,8.9,8.9,14,8.9,20.3S14,31.6,20.2,31.6c2.9,0,5.7-1.1,7.8-3.1c0.4-0.4,1-0.4,1.4,0 c0.4,0.4,0.4,1,0,1.4C26.9,32.3,23.7,33.6,20.2,33.6z"/></g></svg>