<svg xmlns="http://www.w3.org/2000/svg" xmlns:xlink="http://www.w3.org/1999/xlink" id="Layer_1" width="40.5" height="40.5" x="0" y="0" enable-background="new 0 0 40.5 40.5" version="1.1" viewBox="0 0 40.5 40.5" xml:space="preserve"><g><linearGradient id="SVGID_1_" x1="0" x2="36.445" y1="20.25" y2="20.25" gradientUnits="userSpaceOnUse"><stop offset="0" style="stop-color:#61c192;stop-opacity:0"/><stop offset="1" style="stop-color:#61c192"/></linearGradient><path fill="url(#SVGID_1_)" d="M20.2,40.5C9.1,40.5,0,31.4,0,20.3S9.1,0,20.2,0c6.3,0,12.1,2.8,16,7.8c0.3,0.4,0.3,1.1-0.2,1.4 C35.6,9.6,35,9.5,34.7,9c-3.5-4.5-8.7-7-14.4-7C10.2,2,2,10.2,2,20.3s8.2,18.2,18.2,18.2c5.5,0,10.7-2.5,14.2-6.8 c0.3-0.4,1-0.5,1.4-0.1c0.4,0.3,0.5,1,0.1,1.4C32.1,37.8,26.4,40.5,20.2,40.5z"/></g><g><linearGradient id="SVGID_2_" x1="0" x2="36.445" y1="20.25" y2="20.25" gradientUnits="userSpaceOnUse"><stop offset="0" style="stop-color:#61c192;stop-opacity:0"/><stop offset="1" style="stop-color:#61c192"/></linearGradient><path fill="url(#SVGID_2_)" d="M20.2,40.5C9.1,40.5,0,31.4,0,20.3S9.1,0,20.2,0c6.3,0,12.1,2.8,16,7.8c0.3,0.4,0.3,1.1-0.2,1.4 C35.6,9.6,35,9.5,34.7,9c-3.5-4.5-8.7-7-14.4-7C10.2,2,2,10.2,2,20.3s8.2,18.2,18.2,18.2c5.5,0,10.7-2.5,14.2-6.8 c0.3-0.4,1-0.5,1.4-0.1c0.4,0.3,0.5,1,0.1,1.4C32.1,37.8,26.4,40.5,20.2,40.5z"/></g></svg>